<svg width="80" height="80" viewBox="0 0 80 80" fill="none" xmlns="http://www.w3.org/2000/svg">
<path fill-rule="evenodd" clip-rule="evenodd" d="M39.6392 0.0541992C17.7385 0.0541992 0 18.2414 0 40.696C0 58.68 11.3467 73.8699 27.1033 79.2549C29.0852 79.6105 29.8285 78.3913 29.8285 77.3244C29.8285 76.3592 29.7789 73.1587 29.7789 69.7549C19.8196 71.6346 17.243 67.2656 16.4503 64.9795C16.0043 63.811 14.0719 60.2041 12.3872 59.2388C10.9999 58.4768 9.01791 56.5971 12.3377 56.5463C15.4593 56.4955 17.689 59.4928 18.4322 60.7121C21.9997 66.8592 27.6979 65.1319 29.9771 64.0651C30.324 61.4233 31.3645 59.6453 32.5041 58.6292C23.6844 57.6132 14.4683 54.1078 14.4683 38.5623C14.4683 34.1425 16.0043 30.4848 18.5313 27.6398C18.1349 26.6238 16.7476 22.458 18.9277 16.8697C18.9277 16.8697 22.2475 15.8029 29.8285 21.0355C32.9996 20.1211 36.3689 19.6639 39.7383 19.6639C43.1076 19.6639 46.4769 20.1211 49.6481 21.0355C57.2291 15.7521 60.5489 16.8697 60.5489 16.8697C62.729 22.458 61.3416 26.6238 60.9452 27.6398C63.4722 30.4848 65.0083 34.0917 65.0083 38.5623C65.0083 54.1586 55.7426 57.6132 46.9229 58.6292C48.3598 59.8993 49.5985 62.3378 49.5985 66.1479C49.5985 71.5838 49.549 75.9528 49.549 77.3244C49.549 78.3913 50.2922 79.6613 52.2742 79.2549C67.9316 73.8699 79.2784 58.6292 79.2784 40.696C79.2784 18.2414 61.5398 0.0541992 39.6392 0.0541992Z" fill="#EDE4C1"/>
</svg>
