<svg width="84" height="84" viewBox="0 0 84 84" fill="none" xmlns="http://www.w3.org/2000/svg">
<path d="M83.2423 0H0V83.2423H83.2423V0Z" fill="#EDE4C1"/>
<path d="M56.8321 65.7878C58.5088 68.5256 60.6903 70.5379 64.5485 70.5379C67.7896 70.5379 69.8601 68.918 69.8601 66.6797C69.8601 63.9975 67.7328 63.0475 64.1653 61.487L62.2098 60.648C56.5652 58.2432 52.8153 55.2306 52.8153 48.8619C52.8153 42.9953 57.2853 38.5293 64.271 38.5293C69.2444 38.5293 72.8199 40.2602 75.3964 44.7923L69.3052 48.7034C67.9641 46.2986 66.5172 45.3512 64.271 45.3512C61.9799 45.3512 60.5278 46.8046 60.5278 48.7034C60.5278 51.05 61.9812 52 65.3373 53.4534L67.2928 54.2912C73.939 57.1412 77.6915 60.0468 77.6915 66.5793C77.6915 73.6219 72.1592 77.4801 64.7295 77.4801C57.465 77.4801 52.7717 74.0183 50.4753 69.4809L56.8321 65.7878ZM29.1996 66.4657C30.4284 68.6458 31.5462 70.489 34.2338 70.489C36.8037 70.489 38.4249 69.4835 38.4249 65.5738V38.9759H46.2471V65.6795C46.2471 73.7791 41.4983 77.4655 34.5667 77.4655C28.3037 77.4655 24.6768 74.2244 22.8322 70.3206L29.1996 66.4657Z" fill="#222C3B"/>
</svg>
