<svg width="79" height="80" viewBox="0 0 79 80" fill="none" xmlns="http://www.w3.org/2000/svg">
<path d="M38.6727 0.0553063C35.6477 0.0587941 32.6284 0.316713 29.6467 0.826343C21.652 2.23831 20.2014 5.19718 20.2014 10.6475V17.8471H39.0919V20.2566H13.1319C7.6431 20.2566 2.83373 23.5576 1.3302 29.8368C-0.404639 37.0315 -0.481743 41.5228 1.3302 49.0357C2.6747 54.6305 5.87935 58.6159 11.373 58.6159H17.869V49.9706C17.869 43.7348 23.2663 38.2363 29.6708 38.2363H48.542C49.7927 38.2268 51.0292 37.971 52.181 37.4833C53.3327 36.9956 54.377 36.2857 55.2543 35.3942C56.1315 34.5027 56.8243 33.447 57.2933 32.2875C57.7622 31.128 57.998 29.8875 57.9872 28.6368V10.6475C57.9872 5.52969 53.6501 1.67931 48.542 0.826343C45.2797 0.292962 41.9783 0.0350433 38.6727 0.0553063ZM28.4564 5.83811C29.1701 5.8276 29.8708 6.02952 30.4695 6.4182C31.0682 6.80688 31.5379 7.36478 31.8188 8.021C32.0996 8.67721 32.1791 9.40211 32.047 10.1036C31.9149 10.8051 31.5773 11.4514 31.077 11.9606C30.5767 12.4697 29.9363 12.8186 29.2373 12.963C28.5382 13.1073 27.812 13.0405 27.151 12.7712C26.49 12.5018 25.9239 12.042 25.5248 11.4502C25.1257 10.8584 24.9116 10.1613 24.9096 9.44754C24.9058 8.49831 25.2785 7.58629 25.9461 6.91148C26.6137 6.23666 27.5216 5.85412 28.4708 5.84775L28.4564 5.83811Z" fill="#EDE4C1"/>
<path d="M60.3341 20.247V28.6368C60.3341 35.1425 54.8211 40.6169 48.5323 40.6169H29.6611C24.4903 40.6169 20.2159 45.0407 20.2159 50.2164V68.2202C20.2159 73.3379 24.6686 76.3498 29.6611 77.8196C35.6415 79.5786 41.3761 79.8966 48.5323 77.8196C53.2887 76.4414 57.9776 73.6704 57.9776 68.2202V60.9916H39.1064V58.5821H67.4228C72.9117 58.5821 74.9598 54.751 76.8681 49.002C78.8391 43.0842 78.7571 37.393 76.8681 29.803C75.5091 24.3383 72.9213 20.2229 67.4228 20.2229L60.3341 20.247ZM49.7323 65.8058C50.4468 65.7953 51.1483 65.9977 51.7475 66.3872C52.3466 66.7768 52.8162 67.3358 53.0965 67.9931C53.3769 68.6505 53.4552 69.3764 53.3216 70.0784C53.1879 70.7804 52.8484 71.4268 52.3461 71.9352C51.8439 72.4435 51.2017 72.7909 50.5014 72.9331C49.801 73.0753 49.0742 73.0057 48.4135 72.7334C47.7528 72.4611 47.1881 71.9983 46.7913 71.404C46.3945 70.8096 46.1836 70.1106 46.1855 69.396C46.1803 68.4527 46.5492 67.5458 47.2112 66.8738C47.8732 66.2019 48.7745 65.8196 49.7178 65.8106L49.7323 65.8058Z" fill="#EDE4C1"/>
</svg>
