<svg width="93" height="74" viewBox="0 0 93 74" fill="none" xmlns="http://www.w3.org/2000/svg">
<g clip-path="url(#clip0_14_418)">
<path d="M10.2441 9.67078C10.0689 4.63951 13.9889 0 19.2875 0H73.5819C78.8806 0 82.8006 4.63951 82.6254 9.67078C82.457 14.5038 82.6756 20.7644 84.2512 25.8692C85.8318 30.9897 88.4973 34.2263 92.8627 34.6422V39.3578C88.4973 39.7737 85.8318 43.0103 84.2512 48.1308C82.6756 53.2356 82.457 59.4962 82.6254 64.3294C82.8006 69.3605 78.8806 74 73.5819 74H19.2875C13.9889 74 10.0689 69.3605 10.2443 64.3294C10.4124 59.4962 10.1939 53.2356 8.6181 48.1308C7.03762 43.0103 4.36564 39.7737 0 39.3578V34.6422C4.36546 34.2263 7.03762 30.9897 8.6181 25.8692C10.1939 20.7644 10.4124 14.5038 10.2441 9.67078Z" fill="#EDE4C1"/>
<g filter="url(#filter0_d_14_418)">
<path d="M48.4452 56.6711C57.0235 56.6711 62.1928 52.4709 62.1928 45.543C62.1928 40.3063 58.5044 36.515 53.0277 35.9149V35.6967C57.0515 35.0421 60.209 31.3055 60.209 27.1324C60.209 21.1865 55.5147 17.3133 48.3614 17.3133H32.2664V56.6711H48.4452ZM38.5255 22.3047H46.8525C51.3792 22.3047 53.9498 24.323 53.9498 27.9778C53.9498 31.8782 50.9601 34.0601 45.5392 34.0601H38.5255V22.3047ZM38.5255 51.6799V38.7243H46.7965C52.7203 38.7243 55.794 40.9062 55.794 45.1612C55.794 49.416 52.8043 51.6799 47.1598 51.6799H38.5255Z" fill="#222C3B"/>
<path d="M48.4452 56.6711C57.0235 56.6711 62.1928 52.4709 62.1928 45.543C62.1928 40.3063 58.5044 36.515 53.0277 35.9149V35.6967C57.0515 35.0421 60.209 31.3055 60.209 27.1324C60.209 21.1865 55.5147 17.3133 48.3614 17.3133H32.2664V56.6711H48.4452ZM38.5255 22.3047H46.8525C51.3792 22.3047 53.9498 24.323 53.9498 27.9778C53.9498 31.8782 50.9601 34.0601 45.5392 34.0601H38.5255V22.3047ZM38.5255 51.6799V38.7243H46.7965C52.7203 38.7243 55.794 40.9062 55.794 45.1612C55.794 49.416 52.8043 51.6799 47.1598 51.6799H38.5255Z" stroke="#222C3B" stroke-width="0.169118"/>
</g>
</g>
<defs>
<filter id="filter0_d_14_418" x="29.4759" y="15.1993" width="35.5074" height="44.9387" filterUnits="userSpaceOnUse" color-interpolation-filters="sRGB">
<feFlood flood-opacity="0" result="BackgroundImageFix"/>
<feColorMatrix in="SourceAlpha" type="matrix" values="0 0 0 0 0 0 0 0 0 0 0 0 0 0 0 0 0 0 127 0" result="hardAlpha"/>
<feOffset dy="0.676471"/>
<feGaussianBlur stdDeviation="1.35294"/>
<feColorMatrix type="matrix" values="0 0 0 0 0 0 0 0 0 0 0 0 0 0 0 0 0 0 0.15 0"/>
<feBlend mode="normal" in2="BackgroundImageFix" result="effect1_dropShadow_14_418"/>
<feBlend mode="normal" in="SourceGraphic" in2="effect1_dropShadow_14_418" result="shape"/>
</filter>
<clipPath id="clip0_14_418">
<rect width="92.8627" height="74" fill="white"/>
</clipPath>
</defs>
</svg>
