<svg width="74" height="84" viewBox="0 0 74 84" fill="none" xmlns="http://www.w3.org/2000/svg">
<path d="M0 0.0025003C24.6674 0.000334977 49.3326 -0.00183035 74 0.0025003C72.6423 15.3438 71.3063 30.6852 69.8924 46.0222C69.0522 55.8246 68.1861 65.627 67.2723 75.423C62.0084 76.8174 56.7965 78.4068 51.5347 79.8077C46.7017 81.226 41.8298 82.5101 36.9946 83.9175H36.8517C32.2504 82.549 27.6036 81.3451 23.0023 79.9766C17.5716 78.5129 12.1886 76.8802 6.75582 75.423C6.04775 68.0803 5.40898 60.7334 4.77887 53.3864C3.59011 39.812 2.29741 26.2463 1.15412 12.6697C0.757864 8.58369 0.474206 4.48472 0 0.407417V0.0025003ZM37.1158 6.05459C37.0639 9.00159 37.1548 11.9508 37.0639 14.8956C28.6018 14.8653 20.1375 14.8891 11.6754 14.8978C11.8205 17.7582 12.2038 20.5991 12.5979 23.4357C20.471 23.728 28.3549 23.4248 36.2281 23.6608C29.3402 26.7508 22.3678 29.661 15.4496 32.6859C14.8563 32.9501 14.2219 33.1493 13.6914 33.5347C13.7498 36.6766 14.2565 39.8012 14.4795 42.9366C18.6759 42.9214 22.8702 42.8543 27.0666 42.8478C30.4293 42.8305 33.7942 42.8976 37.157 42.824C36.9968 47.9904 37.2068 53.1634 37.0487 58.3299C34.786 57.9943 32.5513 57.4897 30.2972 57.0891C28.5195 56.7016 26.6985 56.5002 24.9467 55.9913C24.6977 53.512 24.5245 51.0241 24.3036 48.5426C23.7969 48.3867 23.2599 48.4019 22.7359 48.3932C20.1938 48.4084 17.6496 48.3845 15.1053 48.4235C15.3543 53.1937 15.7831 57.9574 16.5128 62.6822C19.0202 63.3361 21.532 63.977 24.0351 64.6591C27.8699 65.7028 31.7523 66.5711 35.5936 67.5975C36.0505 67.6949 36.5117 67.8638 36.9859 67.8248C37.2414 70.9624 37.0444 74.1194 37.092 77.2657C37.9776 77.1227 38.8481 76.904 39.7034 76.6399C46.9746 74.6651 54.2371 72.6535 61.5039 70.6592C61.8655 67.801 62.0344 64.9233 62.3202 62.0586C63.0759 53.3496 63.8381 44.6407 64.6306 35.9339C65.5596 25.9734 66.3629 16.0021 67.2983 6.04159C57.236 6.05025 47.1759 6.02211 37.1158 6.05459Z" fill="#EDE4C1"/>
<path d="M37.1158 6.05458C47.1759 6.0221 57.236 6.05024 67.2983 6.04158C66.3629 16.0021 65.5596 25.9734 64.6306 35.9339C63.8381 44.6407 63.0759 53.3496 62.3202 62.0586C62.0344 64.9233 61.8655 67.801 61.5039 70.6592C54.2371 72.6535 46.9746 74.6651 39.7034 76.6399C38.8481 76.904 37.9776 77.1227 37.092 77.2656C37.0444 74.1194 37.2414 70.9624 36.9859 67.8248C37.0509 67.8118 37.183 67.7858 37.2479 67.7729C44.0102 66.0752 50.7271 64.2066 57.4742 62.4483C58.3274 52.8776 59.2736 43.3112 59.8734 33.7209C54.1353 33.7513 48.395 33.7339 42.6569 33.7578C41.8211 33.7621 40.9853 33.7578 40.1538 33.6971C43.2416 32.1078 46.4895 30.8476 49.6596 29.4293C52.7019 28.05 55.7809 26.7573 58.8341 25.4039C59.423 25.1333 60.051 24.9081 60.5685 24.5053C60.772 23.7583 60.7612 22.9766 60.8413 22.2122C61.0167 19.7871 61.3285 17.3749 61.4454 14.9476C53.319 14.8826 45.1925 14.9389 37.0639 14.8956C37.1548 11.9508 37.0639 9.00158 37.1158 6.05458Z" fill="#EDE4C1"/>
<path d="M37.157 42.824C41.0806 42.7568 45.0063 42.8629 48.932 42.837C48.7133 46.8493 48.3799 50.8552 48.172 54.8675C45.7663 55.6535 43.3239 56.3183 40.8987 57.0458C39.606 57.4399 38.2786 57.7517 37.0487 58.3299C37.2068 53.1634 36.9968 47.9904 37.157 42.824Z" fill="#EDE4C1"/>
<path d="M11.6754 14.8978C20.1375 14.8891 28.6018 14.8653 37.0639 14.8956C37.1743 24.2065 37.0357 33.5174 37.157 42.824C33.7942 42.8976 30.4293 42.8305 27.0665 42.8478C22.8701 42.8543 18.6759 42.9214 14.4795 42.9366C14.2565 39.8012 13.7498 36.6766 13.6913 33.5347C14.2218 33.1493 14.8563 32.9501 15.4496 32.6859C22.3678 29.661 29.3401 26.7508 36.228 23.6608C28.3549 23.4248 20.471 23.728 12.5978 23.4357C12.2038 20.5991 11.8205 17.7582 11.6754 14.8978Z" fill="#222C3B"/>
<path d="M15.1053 48.4235C17.6496 48.3845 20.1938 48.4083 22.7359 48.3932C23.2599 48.4018 23.7969 48.3867 24.3036 48.5426C24.5245 51.0241 24.6977 53.512 24.9467 55.9913C26.6984 56.5002 28.5195 56.7015 30.2972 57.0891C32.5513 57.4897 34.7859 57.9942 37.0487 58.3299C37.2652 61.4739 36.8863 64.6396 37.2479 67.7728C37.183 67.7858 37.0509 67.8118 36.9859 67.8248C36.5117 67.8638 36.0505 67.6949 35.5936 67.5975C31.7523 66.5711 27.8699 65.7028 24.0351 64.6591C21.532 63.977 19.0202 63.3361 16.5128 62.6822C15.783 57.9574 15.3543 53.1937 15.1053 48.4235Z" fill="#222C3B"/>
<path d="M37.0638 14.8956C45.1925 14.9389 53.3189 14.8826 61.4454 14.9476C61.3285 17.3749 61.0167 19.7871 60.8413 22.2122C60.7612 22.9766 60.772 23.7583 60.5685 24.5053C60.0509 24.9081 59.423 25.1333 58.834 25.4039C55.7809 26.7573 52.7018 28.05 49.6595 29.4293C46.4895 30.8476 43.2415 32.1078 40.1538 33.6971C40.9853 33.7578 41.8211 33.7621 42.6569 33.7578C48.395 33.7339 54.1353 33.7513 59.8734 33.7209C59.2736 43.3112 58.3273 52.8776 57.4742 62.4483C50.727 64.2066 44.0102 66.0752 37.2479 67.7729C36.8863 64.6396 37.2652 61.4739 37.0487 58.3299C38.2786 57.7517 39.6059 57.4399 40.8986 57.0458C43.3238 56.3183 45.7663 55.6535 48.172 54.8675C48.3798 50.8552 48.7133 46.8493 48.932 42.837C45.0063 42.8629 41.0805 42.7568 37.157 42.824C37.0357 33.5174 37.1743 24.2065 37.0638 14.8956Z" fill="#222C3B"/>
</svg>
