<svg width="51" height="77" viewBox="0 0 51 77" fill="none" xmlns="http://www.w3.org/2000/svg">
<path d="M12.7117 76.27C19.7285 76.27 25.4233 70.5751 25.4233 63.5583V50.8466H12.7117C5.69482 50.8466 -7.62939e-06 56.5415 -7.62939e-06 63.5583C-7.62939e-06 70.5751 5.69482 76.27 12.7117 76.27Z" fill="#EDE4C1"/>
<path d="M-7.62939e-06 38.135C-7.62939e-06 31.1182 5.69482 25.4233 12.7117 25.4233H25.4233V50.8467H12.7117C5.69482 50.8467 -7.62939e-06 45.1518 -7.62939e-06 38.135Z" fill="#EDE4C1"/>
<path d="M0 12.7117C0 5.69483 5.69483 0 12.7117 0H25.4233V25.4233H12.7117C5.69483 25.4233 0 19.7285 0 12.7117Z" fill="#EDE4C1"/>
<path d="M25.4233 0H38.135C45.1518 0 50.8466 5.69483 50.8466 12.7117C50.8466 19.7285 45.1518 25.4233 38.135 25.4233H25.4233V0Z" fill="#EDE4C1"/>
<path d="M50.8466 38.135C50.8466 45.1518 45.1518 50.8467 38.135 50.8467C31.1181 50.8467 25.4233 45.1518 25.4233 38.135C25.4233 31.1182 31.1181 25.4233 38.135 25.4233C45.1518 25.4233 50.8466 31.1182 50.8466 38.135Z" fill="#EDE4C1"/>
</svg>
