<svg width="78" height="78" viewBox="0 0 78 78" fill="none" xmlns="http://www.w3.org/2000/svg">
<path d="M75.8384 35.2585L42.0904 1.51221C40.1472 -0.431803 36.9953 -0.431803 35.0504 1.51221L28.0432 8.52107L36.9322 17.41C38.9981 16.7118 41.367 17.1804 43.0132 18.8274C44.6695 20.4846 45.1338 22.8736 44.418 24.9471L52.9864 33.5147C55.06 32.7997 57.4507 33.2624 59.1061 34.9204C61.4194 37.2337 61.4194 40.9821 59.1061 43.297C56.7912 45.6112 53.0428 45.6112 50.727 43.297C48.9874 41.5557 48.5567 38.9985 49.4391 36.8551L41.4477 28.8646V49.892C42.0113 50.1713 42.5438 50.5431 43.0132 51.0125C45.3265 53.3258 45.3265 57.0742 43.0132 59.39C40.6999 61.7024 36.949 61.7024 34.6374 59.39C32.3241 57.0733 32.3241 53.325 34.6374 51.0125C35.2094 50.4413 35.8714 50.0089 36.578 49.7196V28.4962C35.8714 28.2068 35.2111 27.7786 34.6374 27.2032C32.8852 25.4519 32.4637 22.8795 33.3621 20.7277L24.5994 11.9632L1.45801 35.1021C-0.486002 37.0478 -0.486002 40.1997 1.45801 42.1437L35.2077 75.8909C37.1509 77.8349 40.302 77.8349 42.2477 75.8909L75.8384 42.3002C77.7824 40.3562 77.7824 37.2025 75.8384 35.2585Z" fill="#EDE4C1"/>
</svg>
