<svg width="50" height="50" viewBox="0 0 50 50" fill="none" xmlns="http://www.w3.org/2000/svg">
<path d="M42.6024 42.6063H35.1943V31.0002C35.1943 28.2329 35.1444 24.6696 31.3406 24.6696C27.4822 24.6696 26.8914 27.6843 26.8914 30.7968V42.6053H19.4832V18.7447H26.595V22.0059H26.6909C27.4028 20.7889 28.4314 19.7877 29.6672 19.109C30.903 18.4303 32.2998 18.0995 33.7087 18.1519C41.2175 18.1519 42.6024 23.0917 42.6024 29.5173V42.6063ZM11.1237 15.4825C10.2733 15.4827 9.44186 15.2307 8.73466 14.7583C8.02746 14.2859 7.47621 13.6144 7.15063 12.8287C6.82506 12.043 6.73977 11.1784 6.90557 10.3442C7.07136 9.51003 7.48079 8.74375 8.08207 8.14229C8.68335 7.54083 9.44947 7.13119 10.2836 6.9652C11.1176 6.7992 11.9822 6.8843 12.7679 7.20973C13.5536 7.53516 14.2252 8.0863 14.6977 8.79346C15.1702 9.50061 15.4224 10.332 15.4224 11.1825C15.4224 12.3228 14.9695 13.4164 14.1634 14.2228C13.3573 15.0291 12.2639 15.4823 11.1237 15.4825ZM14.8277 42.6053H7.41195V18.7447H14.8287L14.8277 42.6053ZM46.2921 0.00325013H3.68871C3.20945 -0.00257599 2.73374 0.0861953 2.28883 0.264482C1.84392 0.442768 1.43854 0.707068 1.09591 1.04225C0.753271 1.37743 0.480107 1.77691 0.292056 2.21781C0.104004 2.65871 0.00475758 3.13238 0 3.61169V46.3912C0.0113837 47.3589 0.406371 48.2824 1.09819 48.959C1.79001 49.6356 2.72209 50.0099 3.68967 49.9997H46.2921C47.2622 50.0127 48.1978 49.6399 48.8932 48.9633C49.5885 48.2866 49.9866 47.3614 50 46.3912V3.60402C49.9861 2.63442 49.5877 1.71004 48.8923 1.03423C48.1969 0.358424 47.2616 -0.0134634 46.2921 0.000372704" fill="#EDE4C1"/>
</svg>
