<svg width="90" height="80" viewBox="0 0 90 80" fill="none" xmlns="http://www.w3.org/2000/svg">
<path d="M73.1996 25.6735C72.252 25.3484 71.2967 25.0473 70.3336 24.7704C70.4932 24.1217 70.6409 23.4701 70.7764 22.8157C72.9458 12.2846 71.5274 3.80088 66.6835 1.00813C62.0393 -1.67046 54.4436 1.1224 46.7723 7.79806C46.0164 8.45739 45.2775 9.13548 44.5556 9.83232C44.0724 9.36909 43.5806 8.91492 43.0804 8.4698C35.0407 1.33131 26.9821 -1.67654 22.1432 1.12445C17.5034 3.8104 16.1291 11.7863 18.0822 21.7665C18.2765 22.7549 18.4959 23.7378 18.7403 24.7153C17.6 25.0391 16.4988 25.3843 15.4452 25.7515C6.01964 29.0375 0 34.188 0 39.53C0 45.0476 6.46172 50.5819 16.2796 53.9371C17.0757 54.2079 17.8782 54.4588 18.687 54.6897C18.4243 55.7425 18.1912 56.802 17.9876 57.8681C16.1255 67.675 17.5798 75.4617 22.2075 78.1312C26.9872 80.8872 35.0092 78.0543 42.8208 71.2262C43.4382 70.6864 44.0574 70.1156 44.6785 69.5138C45.4602 70.268 46.2624 70.9999 47.0851 71.7096C54.6516 78.2205 62.1244 80.8498 66.7481 78.1733C71.5235 75.4089 73.0751 67.0437 71.0602 56.8661C70.9065 56.0887 70.7285 55.2955 70.5263 54.4863C71.0897 54.32 71.6416 54.1477 72.1819 53.9693C82.3883 50.5882 89.0285 45.1213 89.0285 39.53C89.0285 34.1687 82.815 28.9836 73.1996 25.6735ZM49.2691 10.6673C55.842 4.94702 61.9849 2.68868 64.784 4.30292C67.765 6.02237 68.9246 12.9557 67.0515 22.0483C66.9287 22.6406 66.7953 23.2305 66.6512 23.8182C62.7291 22.9293 58.7525 22.301 54.7474 21.9376C52.4529 18.6412 49.9386 15.5033 47.2219 12.5452C47.8886 11.9024 48.571 11.2764 49.2691 10.6673ZM26.287 44.0934C27.0922 45.6485 27.9335 47.1841 28.8111 48.7001C29.7063 50.2462 30.638 51.7702 31.6062 53.2722C28.8505 52.9732 26.1119 52.5329 23.4014 51.953C24.1874 49.4148 25.1558 46.7766 26.287 44.0934ZM26.2828 35.1486C25.1752 32.5218 24.2276 29.9391 23.4538 27.445C25.994 26.8764 28.7026 26.4119 31.525 26.0592C30.5803 27.5327 29.6705 29.0278 28.7957 30.5446C27.9223 32.0594 27.0847 33.5941 26.2828 35.1486ZM28.3044 39.6214C29.4762 37.1824 30.7385 34.7899 32.0912 32.4442V32.4449C33.4426 30.1003 34.8815 27.8096 36.408 25.5726C39.0556 25.3725 41.7704 25.2677 44.5147 25.2677C47.2711 25.2677 49.9894 25.3732 52.6363 25.575C54.1463 27.8068 55.5762 30.0898 56.9259 32.424C58.2823 34.7629 59.5617 37.144 60.7639 39.5674C59.5747 42.0142 58.2996 44.4163 56.9385 46.7738H56.9381C55.5895 49.1166 54.1658 51.4136 52.667 53.665C50.0256 53.8537 47.2959 53.951 44.5142 53.951C41.744 53.951 39.0489 53.8647 36.4536 53.6965C34.9168 51.4516 33.4665 49.151 32.1026 46.7947C30.7462 44.4525 29.4801 42.0614 28.3044 39.6214H28.3044ZM60.2328 48.6737C61.1283 47.1207 61.9889 45.5484 62.8147 43.9567C63.9461 46.5137 64.944 49.1278 65.8044 51.7883C63.0626 52.4045 60.2906 52.877 57.4995 53.204C58.4406 51.7122 59.3517 50.2021 60.2328 48.6737H60.2328ZM62.7785 35.1514C61.9558 33.5901 61.1021 32.0459 60.2175 30.5186C59.3472 29.0153 58.4447 27.5312 57.5103 26.0664C60.351 26.4249 63.0726 26.9016 65.628 27.4852C64.8077 30.0868 63.8566 32.6455 62.7785 35.1514H62.7785ZM44.5568 15.265C46.4086 17.2836 48.1572 19.3945 49.7959 21.5896C46.2905 21.424 42.783 21.4232 39.2736 21.5873C41.0034 19.3063 42.7751 17.1874 44.5568 15.265ZM24.0487 4.41599C27.0274 2.69182 33.6132 5.1504 40.5549 11.3138C40.9985 11.7078 41.4441 12.1203 41.8906 12.547C39.1581 15.5045 36.6245 18.6398 34.3067 21.9324C30.311 22.2908 26.3426 22.9075 22.4266 23.7788C22.1995 22.8697 21.9955 21.9554 21.8147 21.0357V21.0361C20.1413 12.4849 21.2524 6.03472 24.0487 4.41599ZM19.7075 51.0263C18.9695 50.8151 18.2369 50.5857 17.5097 50.3384C13.7395 49.1521 10.2197 47.2823 7.12615 44.8223C6.23984 44.2142 5.48767 43.4308 4.9161 42.5205C4.34454 41.6103 3.96574 40.5924 3.8031 39.53C3.8031 36.2885 8.63638 32.1533 16.6974 29.3429C17.7092 28.9917 18.7306 28.6703 19.7616 28.3787C20.9585 32.2182 22.4081 35.9744 24.1008 39.6226C22.3868 43.3229 20.9192 47.1325 19.7075 51.0263ZM40.3181 68.3624C37.407 71.0359 34.0287 73.1508 30.352 74.6015H30.3516C29.3822 75.0655 28.328 75.3257 27.254 75.3661C26.1801 75.4065 25.1093 75.2262 24.1078 74.8363C21.2993 73.2169 20.1322 66.9641 21.7244 58.5776C21.9137 57.5865 22.1305 56.6012 22.3747 55.6217C26.33 56.4714 30.3384 57.0516 34.3723 57.3585C36.7101 60.6698 39.263 63.824 42.0144 66.8005C41.4617 67.3349 40.8962 67.8555 40.3181 68.3624ZM44.662 64.0637C42.8594 62.1185 41.0616 59.9672 39.3054 57.6532C41.0099 57.7203 42.7462 57.7539 44.5142 57.7541C46.329 57.7541 48.1204 57.7143 49.8885 57.6347C48.2573 59.8656 46.5128 62.0114 44.662 64.0637V64.0637ZM67.7572 69.3551C67.675 70.4267 67.374 71.47 66.8726 72.4206C66.3713 73.3712 65.6803 74.2089 64.8425 74.8819C62.0367 76.506 56.0364 74.3949 49.566 68.8267C48.8241 68.1884 48.0778 67.5081 47.3272 66.7858C50.0253 63.7988 52.5185 60.633 54.7897 57.31C58.8469 56.9677 62.8757 56.3468 66.8476 55.4515C67.0288 56.1844 67.1894 56.9023 67.3294 57.6051C68.1918 61.4624 68.3368 65.4455 67.7572 69.3552V69.3551ZM70.9861 50.3596H70.9857C70.4991 50.5207 69.9995 50.6764 69.4904 50.8273C68.2455 46.9698 66.7393 43.2016 64.9822 39.5488C66.6728 35.9449 68.1203 32.2319 69.3151 28.4346C70.2257 28.6986 71.1098 28.9765 71.9616 29.2699C80.2003 32.1056 85.2255 36.299 85.2255 39.5299C85.2255 42.9717 79.7981 47.4397 70.9861 50.3597V50.3596Z" fill="#EDE4C1"/>
<path d="M44.5147 31.5797C46.0871 31.5797 47.6242 32.0459 48.9316 32.9195C50.239 33.793 51.258 35.0347 51.8598 36.4874C52.4615 37.9401 52.619 39.5386 52.3122 41.0808C52.0055 42.6229 51.2483 44.0395 50.1364 45.1514C49.0246 46.2632 47.608 47.0204 46.0658 47.3272C44.5236 47.6339 42.9251 47.4765 41.4724 46.8747C40.0197 46.273 38.7781 45.2539 37.9045 43.9465C37.031 42.6391 36.5648 41.102 36.5648 39.5296C36.5648 37.4212 37.4024 35.3991 38.8933 33.9082C40.3842 32.4173 42.4062 31.5797 44.5147 31.5797Z" fill="#EDE4C1"/>
</svg>
