<svg width="96" height="72" viewBox="0 0 96 72" fill="none" xmlns="http://www.w3.org/2000/svg">
<path d="M81.9244 41.0708C78.6052 41.0882 75.7204 41.8875 73.3049 43.0692C72.4186 41.3141 71.5324 39.75 71.376 38.6031C71.2022 37.265 70.9936 36.4482 71.2022 34.8495C71.4107 33.2507 72.3491 30.9742 72.3317 30.8004C72.3144 30.6266 72.1232 29.8098 70.2116 29.7925C68.3 29.7751 66.6491 30.1574 66.458 30.6614C66.2668 31.1653 65.9019 32.3123 65.6586 33.494C65.3284 35.2318 61.8354 41.4357 59.837 44.6854C59.194 43.4168 58.6379 42.3046 58.5162 41.4183C58.3425 40.0802 58.1339 39.2635 58.3425 37.6647C58.551 36.0659 59.4894 33.7894 59.472 33.6156C59.4547 33.4418 59.2635 32.6251 57.3519 32.6077C55.4403 32.5903 53.7894 32.9726 53.5983 33.4766C53.4071 33.9806 53.1986 35.1623 52.7989 36.3092C52.3992 37.4562 47.7593 47.8134 46.5428 50.4896C45.9172 51.8625 45.3785 52.9573 44.9962 53.7046C44.9962 53.7046 44.9788 53.7567 44.9267 53.8436C44.5965 54.4866 44.4053 54.8341 44.4053 54.8341C44.4053 54.8341 44.4053 54.8341 44.4053 54.8515C44.1446 55.3207 43.8666 55.7552 43.7276 55.7552C43.6233 55.7552 43.4321 54.504 43.7623 52.8009C44.4574 49.2037 46.1084 43.608 46.091 43.4168C46.091 43.3125 46.4038 42.3394 45.0135 41.8354C43.6581 41.3314 43.1715 42.1656 43.0498 42.1656C42.9282 42.1656 42.8413 42.461 42.8413 42.461C42.8413 42.461 44.3532 36.1702 39.9565 36.1702C37.2108 36.1702 33.4224 39.1766 31.5456 41.8875C30.3639 42.5305 27.8441 43.9034 25.1505 45.3805C24.1252 45.954 23.0651 46.5275 22.0746 47.0662C22.0051 46.9967 21.9356 46.9098 21.8661 46.8403C16.5484 41.1577 6.71246 37.1433 7.12953 29.5144C7.28593 26.7339 8.24172 19.4352 26.0194 10.5724C40.6517 3.36054 52.2949 5.35901 54.3108 9.79039C57.1955 16.116 48.0721 27.8635 32.9532 29.5665C27.1837 30.2095 24.16 27.9851 23.3953 27.151C22.5959 26.2821 22.4743 26.23 22.1789 26.4038C21.6923 26.6644 22.0051 27.4464 22.1789 27.8983C22.6307 29.08 24.4901 31.1653 27.6356 32.1906C30.416 33.0943 37.1761 33.5982 45.3611 30.4354C54.5193 26.8903 61.679 17.037 59.5763 8.78247C57.4736 0.406281 43.5712 -2.35682 30.416 2.31786C22.5959 5.09834 14.1155 9.47759 8.01581 15.1776C0.769187 21.955 -0.377759 27.8461 0.0914463 30.3138C1.77711 39.0723 13.8548 44.7723 18.6859 48.9951C18.4426 49.1342 18.2167 49.2558 18.0255 49.3601C15.61 50.5592 6.39966 55.3729 4.10576 60.4646C1.49906 66.2341 4.52283 70.3701 6.5213 70.9262C12.7252 72.6466 19.103 69.5533 22.5264 64.4442C25.9499 59.335 25.5328 52.6966 23.9514 49.6555C23.934 49.6207 23.9167 49.586 23.8819 49.5512C24.5075 49.1863 25.1505 48.804 25.7761 48.439C27.0099 47.7092 28.2264 47.0314 29.2691 46.4753C28.6782 48.0915 28.2438 50.0204 28.0352 52.8009C27.7746 56.068 29.1127 60.3082 30.8679 61.9765C31.6499 62.7064 32.5709 62.7237 33.1618 62.7237C35.2124 62.7237 36.1334 61.0207 37.1587 59.0049C38.4099 56.5372 39.5395 53.6698 39.5395 53.6698C39.5395 53.6698 38.1319 61.4204 41.955 61.4204C43.3453 61.4204 44.7529 59.6131 45.3785 58.692C45.3785 58.7094 45.3785 58.7094 45.3785 58.7094C45.3785 58.7094 45.4132 58.6573 45.4828 58.5356C45.6218 58.3097 45.7087 58.1707 45.7087 58.1707C45.7087 58.1707 45.7087 58.1533 45.7087 58.136C46.2648 57.1628 47.516 54.9558 49.3754 51.289C51.7736 46.5622 54.0849 40.6537 54.0849 40.6537C54.0849 40.6537 54.2934 42.0961 55.0059 44.4942C55.423 45.9019 56.2919 47.4485 56.987 48.943C56.4309 49.725 56.0833 50.1595 56.0833 50.1595C56.0833 50.1595 56.0833 50.1595 56.1007 50.1768C55.6489 50.7677 55.1623 51.4107 54.6236 52.0363C52.7294 54.2954 50.4702 56.8847 50.1574 57.632C49.7925 58.5183 49.8794 59.1613 50.5745 59.6826C51.0785 60.0649 51.9821 60.117 52.9031 60.0649C54.6062 59.9433 55.8053 59.5262 56.3961 59.2655C57.3172 58.9353 58.3946 58.4314 59.4025 57.6841C61.262 56.3113 62.3915 54.3476 62.2873 51.7582C62.2351 50.3332 61.7659 48.9082 61.1925 47.5701C61.3662 47.3268 61.5226 47.0836 61.6964 46.8403C64.6333 42.5479 66.9098 37.8385 66.9098 37.8385C66.9098 37.8385 67.1183 39.2808 67.8308 41.679C68.1784 42.8955 68.8909 44.2162 69.5165 45.5022C66.7534 47.7439 65.0504 50.3506 64.4421 52.0537C63.3473 55.2165 64.1988 56.6414 65.815 56.9716C66.5449 57.128 67.5875 56.7805 68.3522 56.4503C69.3253 56.1375 70.4723 55.5988 71.5671 54.7994C73.4266 53.4265 75.2165 51.5149 75.1122 48.9256C75.0601 47.7439 74.7473 46.5796 74.3128 45.45C76.6589 44.4769 79.6826 43.9381 83.5405 44.39C91.8125 45.3631 93.446 50.5244 93.1332 52.6966C92.8204 54.8689 91.0826 56.0506 90.5091 56.4155C89.9356 56.7805 89.7445 56.9021 89.7966 57.1628C89.8661 57.5451 90.1442 57.5277 90.6308 57.4582C91.3085 57.3366 94.9753 55.703 95.1317 51.7061C95.3923 46.597 90.5265 41.0186 81.9244 41.0708ZM18.1124 62.5847C15.3667 65.5737 11.5435 66.7033 9.89263 65.7475C8.12008 64.7222 8.8152 60.3082 12.1865 57.1454C14.2371 55.2165 16.8786 53.4265 18.6338 52.3317C19.0335 52.0884 19.6243 51.7409 20.3368 51.3064C20.4584 51.2369 20.528 51.2021 20.528 51.2021C20.667 51.1152 20.806 51.0284 20.945 50.9415C22.1789 55.4597 20.9972 59.4393 18.1124 62.5847ZM38.0971 48.9951C37.1413 51.3238 35.1428 57.2844 33.9264 56.9543C32.8837 56.6762 32.2407 52.1579 33.7179 47.6918C34.4651 45.45 36.0465 42.7738 36.9675 41.7311C38.462 40.0629 40.113 39.5068 40.5126 40.1845C41.0166 41.0708 38.688 47.5354 38.0971 48.9951ZM54.5888 56.8847C54.1891 57.0933 53.8068 57.2323 53.633 57.128C53.5114 57.0585 53.8068 56.7805 53.8068 56.7805C53.8068 56.7805 55.8748 54.5561 56.6916 53.5482C57.1608 52.9573 57.7169 52.2622 58.3077 51.4802C58.3077 51.5497 58.3077 51.6366 58.3077 51.7061C58.3077 54.3649 55.7358 56.1549 54.5888 56.8847ZM67.3095 53.9826C67.0141 53.7741 67.0662 53.079 68.0568 50.9067C68.4391 50.0552 69.3427 48.6302 70.8894 47.2573C71.0631 47.8134 71.1848 48.3521 71.1674 48.8561C71.15 52.2101 68.7519 53.4613 67.3095 53.9826Z" fill="#EDE4C1"/>
</svg>
