<svg width="91" height="90" viewBox="0 0 91 90" fill="none" xmlns="http://www.w3.org/2000/svg">
<path d="M81.0036 15.0797L65.2061 7.47356C63.3775 6.59315 61.1923 6.96452 59.7572 8.39957L8.04219 55.5516C6.65119 56.8198 6.65279 59.0098 8.04564 60.276L12.2699 64.1162C13.4086 65.1514 15.1235 65.2276 16.3496 64.2975L78.6264 17.053C80.7158 15.468 83.7166 16.9582 83.7166 19.5807V19.3973C83.7166 17.5564 82.6621 15.8783 81.0036 15.0797Z" fill="#EDE4C1"/>
<g filter="url(#filter0_d_14_348)">
<path d="M81.0036 75.195L65.2061 82.8012C63.3775 83.6817 61.1923 83.3102 59.7572 81.8752L8.04219 34.7232C6.65119 33.4549 6.65279 31.2649 8.04564 29.9987L12.2699 26.1585C13.4086 25.1233 15.1235 25.0471 16.3496 25.9772L78.6264 73.2217C80.7158 74.8067 83.7166 73.3166 83.7166 70.6941V70.8775C83.7166 72.7183 82.6621 74.3964 81.0036 75.195Z" fill="#EDE4C1"/>
</g>
<g filter="url(#filter1_d_14_348)">
<path d="M65.2068 82.8025C63.3777 83.6825 61.1924 83.3103 59.7572 81.8751C61.5256 83.6434 64.5491 82.391 64.5491 79.8902V10.3845C64.5491 7.8837 61.5256 6.6313 59.7572 8.39961C61.1924 6.96443 63.3777 6.59253 65.2068 7.47217L81.0015 15.0679C82.6612 15.8661 83.7166 17.5447 83.7166 19.3864V70.8886C83.7166 72.7302 82.6612 74.4089 81.0014 75.2071L65.2068 82.8025Z" fill="#EDE4C1"/>
</g>
<g style="mix-blend-mode:overlay" opacity="0.25">
<path fill-rule="evenodd" clip-rule="evenodd" d="M61.3682 82.9489C62.5757 83.4193 63.9527 83.3891 65.1715 82.8027L80.9565 75.2072C82.6152 74.4091 83.67 72.7304 83.67 70.8887V19.3865C83.67 17.5448 82.6153 15.8661 80.9566 15.068L65.1715 7.47226C63.572 6.70258 61.6999 6.8911 60.296 7.91172C60.0955 8.05752 59.9045 8.22031 59.7252 8.3997L29.5066 35.9688L16.3439 25.9773C15.1187 25.0471 13.4047 25.1234 12.2667 26.1585L8.04504 29.9988C6.65303 31.2651 6.65143 33.455 8.04159 34.7233L19.4566 45.1374L8.04159 55.5517C6.65143 56.82 6.65303 59.0099 8.04504 60.2761L12.2667 64.1163C13.4047 65.1515 15.1187 65.2277 16.3439 64.2977L29.5066 54.3061L59.7252 81.8752C60.2033 82.3535 60.7646 82.7137 61.3682 82.9489ZM64.5142 27.7325L41.5852 45.1374L64.5142 62.5425V27.7325Z" fill="url(#paint0_linear_14_348)"/>
</g>
<defs>
<filter id="filter0_d_14_348" x="0.610793" y="18.9385" width="89.495" height="70.7248" filterUnits="userSpaceOnUse" color-interpolation-filters="sRGB">
<feFlood flood-opacity="0" result="BackgroundImageFix"/>
<feColorMatrix in="SourceAlpha" type="matrix" values="0 0 0 0 0 0 0 0 0 0 0 0 0 0 0 0 0 0 127 0" result="hardAlpha"/>
<feOffset/>
<feGaussianBlur stdDeviation="3.19459"/>
<feColorMatrix type="matrix" values="0 0 0 0 0 0 0 0 0 0 0 0 0 0 0 0 0 0 0.25 0"/>
<feBlend mode="overlay" in2="BackgroundImageFix" result="effect1_dropShadow_14_348"/>
<feBlend mode="normal" in="SourceGraphic" in2="effect1_dropShadow_14_348" result="shape"/>
</filter>
<filter id="filter1_d_14_348" x="53.3681" y="0.610793" width="36.7377" height="89.0533" filterUnits="userSpaceOnUse" color-interpolation-filters="sRGB">
<feFlood flood-opacity="0" result="BackgroundImageFix"/>
<feColorMatrix in="SourceAlpha" type="matrix" values="0 0 0 0 0 0 0 0 0 0 0 0 0 0 0 0 0 0 127 0" result="hardAlpha"/>
<feOffset/>
<feGaussianBlur stdDeviation="3.19459"/>
<feColorMatrix type="matrix" values="0 0 0 0 0 0 0 0 0 0 0 0 0 0 0 0 0 0 0.25 0"/>
<feBlend mode="overlay" in2="BackgroundImageFix" result="effect1_dropShadow_14_348"/>
<feBlend mode="normal" in="SourceGraphic" in2="effect1_dropShadow_14_348" result="shape"/>
</filter>
<linearGradient id="paint0_linear_14_348" x1="45.335" y1="7.00006" x2="45.335" y2="83.2749" gradientUnits="userSpaceOnUse">
<stop stop-color="white"/>
<stop offset="1" stop-color="white" stop-opacity="0"/>
</linearGradient>
</defs>
</svg>
